<svg width="22" height="22" viewBox="0 0 22 22" fill="none" xmlns="http://www.w3.org/2000/svg">
<path fill-rule="evenodd" clip-rule="evenodd" d="M20.3592 15.0357C20.4061 15.0243 20.4531 15.0124 20.5 15L21.5 6.5L10.2748 1L10.5353 6.92666C10.3266 15.6189 3.74902 19.9899 2 20.7395C11.1023 22.3944 18.0324 17.6364 20.3597 15.0506L20.3592 15.0357Z" fill="#278EFF"/>
<path d="M20.3592 15.0357L20.2636 14.6443L19.9456 14.722L19.9565 15.0491L20.3592 15.0357ZM20.5 15L20.6025 15.3897L20.8681 15.3198L20.9002 15.0471L20.5 15ZM21.5 6.5L21.9002 6.54708L21.9335 6.26371L21.6773 6.13817L21.5 6.5ZM10.2748 1L10.4521 0.638172L9.84247 0.339472L9.87228 1.01769L10.2748 1ZM10.5353 6.92666L10.9381 6.93633L10.9384 6.92264L10.9378 6.90897L10.5353 6.92666ZM2 20.7395L1.84128 20.3691L0.610884 20.8964L1.92792 21.1359L2 20.7395ZM20.3597 15.0506L20.6592 15.3201L20.7678 15.1994L20.7624 15.0371L20.3597 15.0506ZM20.4548 15.4271C20.5041 15.4151 20.5533 15.4026 20.6025 15.3897L20.3975 14.6103C20.3528 14.6221 20.3082 14.6334 20.2636 14.6443L20.4548 15.4271ZM20.9002 15.0471L21.9002 6.54708L21.0998 6.45292L20.0998 14.9529L20.9002 15.0471ZM21.6773 6.13817L10.4521 0.638172L10.0975 1.36183L21.3227 6.86183L21.6773 6.13817ZM9.87228 1.01769L10.1328 6.94435L10.9378 6.90897L10.6774 0.982308L9.87228 1.01769ZM10.1325 6.91699C10.0307 11.156 8.37788 14.3371 6.53539 16.554C4.68577 18.7795 2.6554 20.0202 1.84128 20.3691L2.15872 21.1098C3.09362 20.7091 5.22655 19.3896 7.15514 17.0691C9.09087 14.74 10.8312 11.3895 10.9381 6.93633L10.1325 6.91699ZM1.92792 21.1359C11.2035 22.8224 18.2656 17.9796 20.6592 15.3201L20.0602 14.781C17.7992 17.2933 11.0011 21.9665 2.07208 20.343L1.92792 21.1359ZM20.7624 15.0371L20.7619 15.0223L19.9565 15.0491L19.957 15.064L20.7624 15.0371Z" fill="#278EFF"/>
</svg>
