<svg width="45" height="32" viewBox="0 0 45 32" fill="none" xmlns="http://www.w3.org/2000/svg">
<path d="M2.90859 15.7528C2.47801 7.18366 9.30977 0 17.8897 0H28.9286C37.2128 0 43.9286 6.71573 43.9286 15V15.8965C43.9286 24.1808 37.2128 30.8966 28.9286 30.8966H16.9363H16.0246C12.9101 30.8966 9.95316 29.527 7.9389 27.1515V27.1515L2.08781 29.9117C1.29602 30.2852 0.440478 29.5329 0.709585 28.6999L3.17556 21.0658L2.90859 15.7528Z" fill="url(#paint0_linear_3_19)"/>
<path d="M3.98001 16.8562C3.54943 8.28711 10.3812 1.10345 18.9611 1.10345H30C38.2843 1.10345 45 7.81918 45 16.1034V17C45 25.2843 38.2843 32 30 32H18.0077H17.096C13.9815 32 11.0246 30.6304 9.01032 28.255V28.255L3.15924 31.0151C2.36744 31.3886 1.5119 30.6364 1.78101 29.8033L4.24699 22.1693L3.98001 16.8562Z" fill="url(#paint1_linear_3_19)"/>
<path d="M11.2143 11.5345H12.5022C15.2732 11.5345 17.5195 13.7808 17.5195 16.5517C17.5195 19.3227 15.2732 21.569 12.5022 21.569H11.2143V11.5345Z" fill="white" fill-opacity="0.33" stroke="white"/>
<rect x="30.6948" y="11.5345" width="6.30519" height="10.0345" rx="3.1526" fill="white" fill-opacity="0.39" stroke="white"/>
<path d="M20.9545 11.5345H27.2597V18.4164C27.2597 20.1575 25.8483 21.569 24.1071 21.569C22.366 21.569 20.9545 20.1575 20.9545 18.4164V11.5345Z" fill="white" fill-opacity="0.49" stroke="white"/>
<defs>
<linearGradient id="paint0_linear_3_19" x1="-21.3997" y1="9.10267" x2="36.0006" y2="43.9524" gradientUnits="userSpaceOnUse">
<stop offset="0.255" stop-color="#FB538F" stop-opacity="0.69"/>
<stop offset="0.986076" stop-color="#C50707" stop-opacity="0.47"/>
</linearGradient>
<linearGradient id="paint1_linear_3_19" x1="-20.3283" y1="10.2061" x2="37.0721" y2="45.0558" gradientUnits="userSpaceOnUse">
<stop offset="0.255" stop-color="#C50707" stop-opacity="0.47"/>
<stop offset="0.986076" stop-color="#C50707" stop-opacity="0.47"/>
</linearGradient>
</defs>
</svg>
