<svg width="45" height="33" viewBox="0 0 45 33" fill="none" xmlns="http://www.w3.org/2000/svg">
<path d="M5.54762 23.2167L5.57474 23.131L5.57032 23.0412L5.30799 17.713C4.90044 9.4349 11.5023 2.5 19.7905 2.5H30C38.0081 2.5 44.5 8.99187 44.5 17V17.8965C44.5 25.9047 38.0081 32.3966 30 32.3966H18.5535H17.7182C14.7823 32.3966 11.9987 31.0902 10.1225 28.832L9.73796 29.1515L9.52105 28.701L3.82834 31.4419C3.4335 31.632 3.00251 31.2583 3.13474 30.8405L5.54762 23.2167Z" stroke="#D70000"/>
<path d="M3.58805 21.2167L3.61517 21.131L3.61075 21.0412L3.34843 15.713C2.94088 7.4349 9.54276 0.5 17.8309 0.5H28.0404C36.0486 0.5 42.5404 6.99187 42.5404 15V15.8965C42.5404 23.9047 36.0486 30.3966 28.0404 30.3966H16.5939H15.7586C12.8227 30.3966 10.0391 29.0902 8.16298 26.832L7.77839 27.1515L7.56149 26.701L1.86877 29.4419C1.47394 29.632 1.04295 29.2583 1.17517 28.8405L3.58805 21.2167Z" stroke="#FA3838"/>
<path d="M11.5 13.5H14.123C16.0751 13.5 17.6575 15.0824 17.6575 17.0345C17.6575 18.9865 16.0751 20.569 14.123 20.569H11.5V13.5Z" fill="white" fill-opacity="0.33" stroke="#FA3838"/>
<rect x="30.5867" y="13.5" width="6.1575" height="7.06897" rx="3.07875" fill="white" fill-opacity="0.39" stroke="#FA3838"/>
<path d="M21.0433 13.5H27.2008V17.4902C27.2008 19.1906 25.8224 20.569 24.1221 20.569C22.4217 20.569 21.0433 19.1906 21.0433 17.4902V13.5Z" fill="white" fill-opacity="0.49" stroke="#FA3838"/>
</svg>
